<svg xmlns="http://www.w3.org/2000/svg" width="64" height="64" viewBox="0 0 64 64" fill="none"><g clip-path="url(#clip0_523_6556)"><path d="M58.3606 1.875V15.7C56.4094 13.2887 53.8106 11.4237 50.8281 10.37V1.875H58.3606Z" stroke="#AFA280" stroke-width="2.5" stroke-miterlimit="10" stroke-linecap="round" stroke-linejoin="round"></path><path d="M57.1631 38.3337C57.5856 37.9112 57.9856 37.4674 58.3606 37.0024V50.8287C58.3606 53.9474 57.0956 56.7724 55.0519 58.8162C53.0069 60.8599 50.1831 62.1249 47.0631 62.1249C40.8244 62.1249 35.7656 57.0674 35.7656 50.8287V50.8274H43.2981V50.8287C43.2981 51.8674 43.7194 52.8099 44.4006 53.4912C45.0819 54.1724 46.0231 54.5937 47.0631 54.5937C49.1431 54.5937 50.8281 52.9074 50.8281 50.8287V42.3324C53.2356 41.4824 55.3931 40.1024 57.1631 38.3337Z" stroke="#AFA280" stroke-width="2.5" stroke-miterlimit="10" stroke-linecap="round" stroke-linejoin="round"></path><path d="M62.125 26.3512C62.125 30.3862 60.715 34.0925 58.36 37.0025C57.985 37.4675 57.585 37.9113 57.1625 38.3338C55.3925 40.1025 53.235 41.4825 50.8275 42.3325C49.0612 42.9575 47.16 43.2975 45.18 43.2975H18.82C9.46125 43.2975 1.875 35.71 1.875 26.3512C1.875 21.6725 3.77125 17.435 6.8375 14.3687C9.905 11.3025 14.14 9.40625 18.82 9.40625H45.18C47.16 9.40625 49.0612 9.74625 50.8275 10.37C53.81 11.4237 56.4088 13.2887 58.36 15.7C60.715 18.61 62.125 22.3162 62.125 26.3512Z" stroke="#AFA280" stroke-width="2.5" stroke-miterlimit="10" stroke-linecap="round" stroke-linejoin="round"></path><path d="M45.1797 35.7657H35.7656L32 32.0001L28.2344 35.7657H18.8202C13.621 35.7657 9.40625 31.5509 9.40625 26.3517C9.40625 21.1525 13.6211 16.9377 18.8202 16.9377H45.1796C50.3789 16.9377 54.5936 21.1526 54.5936 26.3517C54.5937 31.5509 50.3789 35.7657 45.1797 35.7657Z" stroke="#AFA280" stroke-width="2.5" stroke-miterlimit="10" stroke-linecap="round" stroke-linejoin="round"></path></g><defs><clipPath id="clip0_523_6556"><rect width="64" height="64" fill="white"></rect></clipPath></defs></svg>