<svg xmlns="http://www.w3.org/2000/svg" width="64" height="64" viewBox="0 0 64 64" fill="none"><g clip-path="url(#clip0_523_6566)"><path d="M11.7834 45.1165C10.5486 43.2187 9.57374 41.1356 8.90962 38.9188C8.54017 37.6856 7.52499 36.7227 6.24755 36.5631L4.50307 36.3451C3.0017 36.1575 1.875 34.8813 1.875 33.3682V30.6319C1.875 29.1188 3.00171 27.8426 4.50307 27.655L6.24767 27.437C7.52505 27.2774 8.5402 26.3146 8.90969 25.0815C9.38251 23.5035 10.0128 21.9935 10.7822 20.5693C11.3942 19.4365 11.3573 18.0376 10.5669 17.0212L9.48405 15.6289C8.55524 14.4347 8.66103 12.7357 9.73082 11.6659L11.6659 9.73077C12.7357 8.66089 14.4349 8.55513 15.6291 9.48409L17.0208 10.5665C18.0373 11.3572 19.4366 11.394 20.5696 10.7819C21.9935 10.0126 23.5035 9.38256 25.0813 8.9098C26.3143 8.54037 27.277 7.52535 27.4366 6.24814L27.6548 4.50314C27.8424 3.00185 29.1186 1.87524 30.6316 1.87524H33.3683C34.8812 1.87524 36.1575 3.00185 36.3451 4.50314L36.5633 6.24826C36.7229 7.52541 37.6855 8.54041 38.9184 8.90986C40.4963 9.38265 42.0063 10.0127 43.4303 10.782C44.5633 11.3941 45.9625 11.3573 46.979 10.5666L48.3707 9.48409C49.565 8.55513 51.2641 8.66089 52.334 9.73078L54.2691 11.6659C55.3388 12.7357 55.4446 14.4347 54.5158 15.6289L53.4333 17.0209C52.6427 18.0374 52.606 19.4366 53.2181 20.5696C53.9874 21.9934 54.6176 23.5035 55.0903 25.0813C55.4597 26.3145 56.4749 27.2775 57.7523 27.4371L59.497 27.6551C60.9983 27.8427 62.125 29.1189 62.125 30.632V33.3684C62.125 34.8814 60.9983 36.1576 59.4969 36.3452L57.7523 36.5632C56.4749 36.7228 55.4598 37.6856 55.0903 38.9188C54.6175 40.4967 53.9872 42.0068 53.2178 43.4309C52.6058 44.5637 52.6427 45.9627 53.4331 46.979L54.5159 48.3713C55.4448 49.5656 55.339 51.2645 54.2692 52.3344L52.3341 54.2695C51.2643 55.3393 49.5651 55.4451 48.3709 54.5161L46.9792 53.4337C45.9627 52.643 44.5634 52.6062 43.4304 53.2184C42.0065 53.9876 40.4965 54.6177 38.9187 55.0904C37.6857 55.4599 36.723 56.4749 36.5634 57.7521L36.3452 59.4971C36.1576 60.9984 34.8814 62.125 33.3684 62.125H30.6317C29.1188 62.125 27.8425 60.9984 27.6549 59.4971L27.4367 57.7518C27.2771 56.4748 26.3146 55.4598 25.0817 55.0904C22.8651 54.4261 20.7822 53.4517 18.884 52.2169" stroke="#AFA280" stroke-width="2.5" stroke-miterlimit="10" stroke-linecap="round" stroke-linejoin="round"></path><path d="M44.8369 26.2643C45.6218 28.0155 46.0584 29.9576 46.0584 32C46.0584 39.7592 39.759 46.0584 32 46.0584C29.957 46.0584 28.0153 45.6216 26.2638 44.8373L11.804 59.2967C10.2419 60.8587 7.70932 60.8587 6.14723 59.2967L4.70344 57.8529C3.14133 56.2908 3.1413 53.7582 4.70337 52.1961L19.1632 37.7358C18.3784 35.9845 17.9416 34.0424 17.9416 32C17.9416 24.2409 24.241 17.9417 32 17.9417C34.0427 17.9417 35.9844 18.3784 37.7363 19.1628L28.4911 28.4081L29.9916 34.0084L35.5916 35.5086L44.8369 26.2643Z" stroke="#AFA280" stroke-width="2.5" stroke-miterlimit="10" stroke-linecap="round" stroke-linejoin="round"></path></g><defs><clipPath id="clip0_523_6566"><rect width="64" height="64" fill="white"></rect></clipPath></defs></svg>