<svg width="72" height="72" viewBox="0 0 72 72" fill="none" xmlns="http://www.w3.org/2000/svg">
<g clip-path="url(#clip0_1_2)" filter="url(#filter0_d_1_2)">
<path d="M36 64C53.6731 64 68 49.6731 68 32C68 14.3269 53.6731 0 36 0C18.3269 0 4 14.3269 4 32C4 49.6731 18.3269 64 36 64Z" fill="white"/>
<path d="M35 24H31.8C30.1198 24 29.2798 24 28.638 24.327C28.0735 24.6146 27.6146 25.0735 27.327 25.638C27 26.2798 27 27.1198 27 28.8V34C27 34.93 27 35.395 27.1022 35.7765C27.3796 36.8117 28.1883 37.6204 29.2235 37.8978C29.605 38 30.07 38 31 38V40.3355C31 40.8684 31 41.1348 31.1092 41.2716C31.2042 41.3906 31.3483 41.4599 31.5005 41.4597C31.6756 41.4595 31.8837 41.2931 32.2998 40.9602L34.6852 39.0518C35.1725 38.662 35.4162 38.4671 35.6875 38.3285C35.9282 38.2055 36.1844 38.1156 36.4492 38.0613C36.7477 38 37.0597 38 37.6837 38H39.2C40.8802 38 41.7202 38 42.362 37.673C42.9265 37.3854 43.3854 36.9265 43.673 36.362C44 35.7202 44 34.8802 44 33.2V33M44.1213 23.8787C45.2929 25.0503 45.2929 26.9497 44.1213 28.1213C42.9497 29.2929 41.0503 29.2929 39.8787 28.1213C38.7071 26.9497 38.7071 25.0503 39.8787 23.8787C41.0503 22.7071 42.9497 22.7071 44.1213 23.8787Z" stroke="#AFA280" stroke-width="2" stroke-linecap="round" stroke-linejoin="round"/>
</g>
<defs>
<filter id="filter0_d_1_2" x="0" y="0" width="72" height="72" filterUnits="userSpaceOnUse" color-interpolation-filters="sRGB">
<feFlood flood-opacity="0" result="BackgroundImageFix"/>
<feColorMatrix in="SourceAlpha" type="matrix" values="0 0 0 0 0 0 0 0 0 0 0 0 0 0 0 0 0 0 127 0" result="hardAlpha"/>
<feOffset dy="4"/>
<feGaussianBlur stdDeviation="2"/>
<feComposite in2="hardAlpha" operator="out"/>
<feColorMatrix type="matrix" values="0 0 0 0 0 0 0 0 0 0 0 0 0 0 0 0 0 0 0.25 0"/>
<feBlend mode="normal" in2="BackgroundImageFix" result="effect1_dropShadow_1_2"/>
<feBlend mode="normal" in="SourceGraphic" in2="effect1_dropShadow_1_2" result="shape"/>
</filter>
<clipPath id="clip0_1_2">
<rect width="64" height="64" fill="white" transform="translate(4)"/>
</clipPath>
</defs>
</svg>
