<svg xmlns="http://www.w3.org/2000/svg" width="64" height="64" viewBox="0 0 64 64" fill="none"><rect width="64" height="64" fill="#1E1E1E"></rect><g clip-path="url(#clip0_0_1)"><path d="M32 64C49.6731 64 64 49.6731 64 32C64 14.3269 49.6731 0 32 0C14.3269 0 0 14.3269 0 32C0 49.6731 14.3269 64 32 64Z" fill="white"></path><path d="M31 24H27.8C26.1198 24 25.2798 24 24.638 24.327C24.0735 24.6146 23.6146 25.0735 23.327 25.638C23 26.2798 23 27.1198 23 28.8V34C23 34.93 23 35.395 23.1022 35.7765C23.3796 36.8117 24.1883 37.6204 25.2235 37.8978C25.605 38 26.07 38 27 38V40.3355C27 40.8684 27 41.1348 27.1092 41.2716C27.2042 41.3906 27.3483 41.4599 27.5005 41.4597C27.6756 41.4595 27.8837 41.2931 28.2998 40.9602L30.6852 39.0518C31.1725 38.662 31.4162 38.4671 31.6875 38.3285C31.9282 38.2055 32.1844 38.1156 32.4492 38.0613C32.7477 38 33.0597 38 33.6837 38H35.2C36.8802 38 37.7202 38 38.362 37.673C38.9265 37.3854 39.3854 36.9265 39.673 36.362C40 35.7202 40 34.8802 40 33.2V33M40.1213 23.8787C41.2929 25.0503 41.2929 26.9497 40.1213 28.1213C38.9497 29.2929 37.0503 29.2929 35.8787 28.1213C34.7071 26.9497 34.7071 25.0503 35.8787 23.8787C37.0503 22.7071 38.9497 22.7071 40.1213 23.8787Z" stroke="#AFA280" stroke-width="2" stroke-linecap="round" stroke-linejoin="round"></path></g><defs><clipPath id="clip0_0_1"><rect width="64" height="64" fill="white"></rect></clipPath></defs></svg>