<svg xmlns="http://www.w3.org/2000/svg" width="48" height="48" viewBox="0 0 48 48" fill="none"><g clip-path="url(#clip0_1103_1628)"><path d="M24 7.05469V1.40625" stroke="#AFA280" stroke-width="2.5" stroke-miterlimit="10" stroke-linecap="round" stroke-linejoin="round"></path><path d="M24 21.1763V12.7031" stroke="#AFA280" stroke-width="2.5" stroke-miterlimit="10" stroke-linecap="round" stroke-linejoin="round"></path><path d="M12.0172 12.0182L8.02344 8.02441" stroke="#AFA280" stroke-width="2.5" stroke-miterlimit="10" stroke-linecap="round" stroke-linejoin="round"></path><path d="M22.0033 22.003L16.0117 16.0115" stroke="#AFA280" stroke-width="2.5" stroke-miterlimit="10" stroke-linecap="round" stroke-linejoin="round"></path><path d="M7.05469 24H1.40625" stroke="#AFA280" stroke-width="2.5" stroke-miterlimit="10" stroke-linecap="round" stroke-linejoin="round"></path><path d="M21.1763 24H12.7031" stroke="#AFA280" stroke-width="2.5" stroke-miterlimit="10" stroke-linecap="round" stroke-linejoin="round"></path><path d="M12.0172 35.9824L8.02344 39.9762" stroke="#AFA280" stroke-width="2.5" stroke-miterlimit="10" stroke-linecap="round" stroke-linejoin="round"></path><path d="M22.0033 25.9961L16.0117 31.9877" stroke="#AFA280" stroke-width="2.5" stroke-miterlimit="10" stroke-linecap="round" stroke-linejoin="round"></path><path d="M24 46.5938V40.9453" stroke="#AFA280" stroke-width="2.5" stroke-miterlimit="10" stroke-linecap="round" stroke-linejoin="round"></path><path d="M24 35.2973V26.8242" stroke="#AFA280" stroke-width="2.5" stroke-miterlimit="10" stroke-linecap="round" stroke-linejoin="round"></path><path d="M39.9762 39.9762L35.9824 35.9824" stroke="#AFA280" stroke-width="2.5" stroke-miterlimit="10" stroke-linecap="round" stroke-linejoin="round"></path><path d="M31.9877 31.9877L25.9961 25.9961" stroke="#AFA280" stroke-width="2.5" stroke-miterlimit="10" stroke-linecap="round" stroke-linejoin="round"></path><path d="M46.5938 24H40.9453" stroke="#AFA280" stroke-width="2.5" stroke-miterlimit="10" stroke-linecap="round" stroke-linejoin="round"></path><path d="M35.2973 24H26.8242" stroke="#AFA280" stroke-width="2.5" stroke-miterlimit="10" stroke-linecap="round" stroke-linejoin="round"></path><path d="M39.9762 8.02441L35.9824 12.0182" stroke="#AFA280" stroke-width="2.5" stroke-miterlimit="10" stroke-linecap="round" stroke-linejoin="round"></path><path d="M31.9877 16.0115L25.9961 22.003" stroke="#AFA280" stroke-width="2.5" stroke-miterlimit="10" stroke-linecap="round" stroke-linejoin="round"></path><path d="M24 26.8242C25.5598 26.8242 26.8242 25.5598 26.8242 24C26.8242 22.4402 25.5598 21.1758 24 21.1758C22.4402 21.1758 21.1758 22.4402 21.1758 24C21.1758 25.5598 22.4402 26.8242 24 26.8242Z" stroke="#AFA280" stroke-width="2.5" stroke-miterlimit="10" stroke-linejoin="round"></path><path d="M35.2969 24C35.2969 27.12 34.0322 29.9437 31.9884 31.9884C29.9437 34.0322 27.12 35.2969 24 35.2969C20.88 35.2969 18.0562 34.0322 16.0116 31.9884C13.9678 29.9437 12.7031 27.12 12.7031 24C12.7031 20.88 13.9678 18.0562 16.0116 16.0116C18.0562 13.9678 20.88 12.7031 24 12.7031C27.12 12.7031 29.9437 13.9678 31.9884 16.0116C34.0322 18.0562 35.2969 20.88 35.2969 24Z" stroke="#AFA280" stroke-width="2.5" stroke-miterlimit="10" stroke-linejoin="round"></path><path d="M35.9822 12.0178C32.9156 8.95125 28.68 7.05469 24 7.05469C19.32 7.05469 15.0844 8.95125 12.0178 12.0178C8.95125 15.0844 7.05469 19.32 7.05469 24C7.05469 28.68 8.95125 32.9156 12.0178 35.9822C15.0844 39.0487 19.32 40.9453 24 40.9453C28.68 40.9453 32.9156 39.0487 35.9822 35.9822C39.0487 32.9156 40.9453 28.68 40.9453 24C40.9453 19.32 39.0487 15.0844 35.9822 12.0178ZM24 35.2969C20.88 35.2969 18.0562 34.0322 16.0116 31.9884C13.9678 29.9437 12.7031 27.12 12.7031 24C12.7031 20.88 13.9678 18.0562 16.0116 16.0116C18.0562 13.9678 20.88 12.7031 24 12.7031C27.12 12.7031 29.9437 13.9678 31.9884 16.0116C34.0322 18.0562 35.2969 20.88 35.2969 24C35.2969 27.12 34.0322 29.9437 31.9884 31.9884C29.9437 34.0322 27.12 35.2969 24 35.2969Z" stroke="#AFA280" stroke-width="2.5" stroke-miterlimit="10" stroke-linejoin="round"></path></g><defs><clipPath id="clip0_1103_1628"><rect width="48" height="48" fill="white"></rect></clipPath></defs></svg>