<svg xmlns="http://www.w3.org/2000/svg" width="54" height="55" viewBox="0 0 54 55" fill="none"><rect width="54" height="53" transform="translate(0 1)" fill="#111521"></rect><path fill-rule="evenodd" clip-rule="evenodd" d="M43.9319 10.6006C48.3954 15.0571 50.9029 21.1013 50.9029 27.4038H37.6803C37.6803 24.4873 36.4963 21.8469 34.582 19.9357L43.9319 10.6006Z" fill="white" stroke="#111521"></path><path fill-rule="evenodd" clip-rule="evenodd" d="M27.1023 6.28076C21.4913 6.28077 16.1101 8.50621 12.1426 12.4675L19.6224 19.9356C21.5367 18.0243 24.1812 16.8422 27.1023 16.8422L27.1023 6.28076Z" fill="white" stroke="#111521"></path><path fill-rule="evenodd" clip-rule="evenodd" d="M8.58984 27.4036C8.58984 22.5017 10.5402 17.8006 14.0118 14.3345L19.6217 19.9355C17.7074 21.8468 16.5234 24.4871 16.5234 27.4036L8.58984 27.4036Z" fill="white" stroke="#111521"></path><path fill-rule="evenodd" clip-rule="evenodd" d="M16.5234 27.4038L3.30078 27.4038C3.30078 33.7062 5.80835 39.7505 10.2719 44.207L19.6217 34.8719C17.7074 32.9606 16.5234 30.3203 16.5234 27.4038Z" fill="white" stroke="#111521"></path><path fill-rule="evenodd" clip-rule="evenodd" d="M34.5814 34.8716C32.6671 36.7828 30.0226 37.965 27.1016 37.965L27.1016 48.5264C32.7125 48.5264 38.0937 46.301 42.0613 42.3397L34.5814 34.8716Z" fill="white" stroke="#111521"></path><path fill-rule="evenodd" clip-rule="evenodd" d="M34.582 34.8719C36.4963 32.9606 37.6803 30.3203 37.6803 27.4038L45.6139 27.4038C45.6139 32.3057 43.6635 37.0068 40.1919 40.4729L34.582 34.8719Z" fill="white" stroke="#111521"></path><path fill-rule="evenodd" clip-rule="evenodd" d="M27.1016 1C34.1153 1 40.8417 3.7818 45.8012 8.73344L34.5814 19.9356C32.6672 18.0243 30.0226 16.8422 27.1016 16.8422V1Z" fill="white" stroke="#111521"></path><path fill-rule="evenodd" clip-rule="evenodd" d="M19.6221 34.8716C21.5364 36.7828 24.1809 37.965 27.102 37.965V53.8071C20.0883 53.8071 13.3618 51.0253 8.40234 46.0737L19.6221 34.8716Z" fill="white" stroke="#111521"></path></svg>