<svg xmlns="http://www.w3.org/2000/svg" width="40" height="40" viewBox="0 0 40 40" fill="none"><circle cx="20" cy="20" r="20" fill="white"></circle><path d="M21.44 23.336C21.44 20.2853 22.1853 17.7893 23.676 15.848C25.2013 13.872 27.4027 12.5893 30.28 12V15.9C29.0667 16.1773 28.0613 16.68 27.264 17.408C26.5013 18.136 25.9987 19.02 25.756 20.06H29.24V27.86H21.44V23.336ZM10 23.336C10 20.2853 10.7453 17.7893 12.236 15.848C13.7613 13.872 15.9627 12.5893 18.84 12V15.9C17.6267 16.1773 16.6213 16.68 15.824 17.408C15.0613 18.136 14.5587 19.02 14.316 20.06H17.8V27.86H10V23.336Z" fill="#0B0B0B"></path></svg>