<svg xmlns="http://www.w3.org/2000/svg" width="64" height="64" viewBox="0 0 64 64" fill="none"><g clip-path="url(#clip0_551_5778)"><path d="M42.7038 51.4135H55.3025C56.5238 51.4135 57.6725 50.6947 58.405 49.4735C59.9162 46.9522 61.08 44.1597 61.8675 41.2097C62.6538 38.2585 63.0625 35.1497 63.0625 31.9997C63.0625 28.8497 62.6538 25.741 61.8675 22.7897C61.0813 19.8397 59.9175 17.0472 58.405 14.526C57.6725 13.3047 56.5238 12.586 55.3025 12.586H8.70375C8.0925 12.586 7.49875 12.766 6.9675 13.0985C6.435 13.431 5.96375 13.916 5.5975 14.5272C4.085 17.0472 2.92 19.841 2.1325 22.791C1.34625 25.741 0.9375 28.8497 0.9375 31.9997C0.9375 35.1497 1.34625 38.2585 2.1325 41.2085C2.92 44.1585 4.085 46.9523 5.5975 49.4723C6.33 50.6948 7.48125 51.4135 8.70375 51.4135H38.6175" stroke="#BBA98F" stroke-width="2.2" stroke-miterlimit="10" stroke-linecap="round" stroke-linejoin="round"></path><path d="M11 51L11 13" stroke="#BBA98F" stroke-width="2.2" stroke-miterlimit="10" stroke-linecap="round" stroke-linejoin="round"></path><path d="M53.3552 12.5859V51.4137" stroke="#BBA98F" stroke-width="2.2" stroke-miterlimit="10" stroke-linecap="round" stroke-linejoin="round"></path><path d="M18.4104 51.4137H10.6448V55.2965H18.4104V51.4137Z" stroke="#BBA98F" stroke-width="2.2" stroke-miterlimit="10" stroke-linecap="round" stroke-linejoin="round"></path><path d="M53.3555 51.4137H45.5898V55.2965H53.3555V51.4137Z" stroke="#BBA98F" stroke-width="2.2" stroke-miterlimit="10" stroke-linecap="round" stroke-linejoin="round"></path><path d="M33.9925 8.70349H37.8237V12.586H26.0737V8.70349H29.9062" stroke="#BBA98F" stroke-width="2.2" stroke-miterlimit="10" stroke-linecap="round" stroke-linejoin="round"></path><path d="M46 45V13" stroke="#BBA98F" stroke-width="2.2" stroke-miterlimit="10" stroke-linecap="round" stroke-linejoin="round"></path><path d="M37 45V13" stroke="#BBA98F" stroke-width="2.2" stroke-miterlimit="10" stroke-linecap="round" stroke-linejoin="round"></path><path d="M37.8242 16.4686H45.5898" stroke="#BBA98F" stroke-width="2.2" stroke-miterlimit="10" stroke-linecap="round" stroke-linejoin="round"></path><path d="M37.8242 24.2342H45.5898" stroke="#BBA98F" stroke-width="2.2" stroke-miterlimit="10" stroke-linecap="round" stroke-linejoin="round"></path><path d="M37.8242 31.9997H45.5898" stroke="#BBA98F" stroke-width="2.2" stroke-miterlimit="10" stroke-linecap="round" stroke-linejoin="round"></path><path d="M37.8242 39.7654H45.5898" stroke="#BBA98F" stroke-width="2.2" stroke-miterlimit="10" stroke-linecap="round" stroke-linejoin="round"></path><path d="M30.0586 33.9411C30.0586 37.1577 27.451 39.7652 24.2345 39.7652C21.018 39.7652 18.4104 37.1576 18.4104 33.9411C18.4104 31.4374 21.939 25.774 23.5031 23.3866C23.8483 22.8599 24.6209 22.8599 24.966 23.3866C26.53 25.7741 30.0586 31.4375 30.0586 33.9411Z" stroke="#BBA98F" stroke-width="2.2" stroke-miterlimit="10" stroke-linecap="round" stroke-linejoin="round"></path></g><defs><clipPath id="clip0_551_5778"><rect width="64" height="64" fill="white"></rect></clipPath></defs></svg>