<svg xmlns="http://www.w3.org/2000/svg" width="64" height="64" viewBox="0 0 64 64" fill="none"><g clip-path="url(#clip0_551_5766)"><path d="M62.75 50.75V13.3752C62.75 10.2815 60.2188 7.75024 57.1251 7.75024V45.1248C60.2188 45.1248 62.75 47.6561 62.75 50.75ZM62.75 50.75C62.75 53.8438 60.2188 56.3749 57.1251 56.3749H7.5" stroke="#BBA98F" stroke-width="2.2" stroke-miterlimit="22.9256" stroke-linecap="round" stroke-linejoin="round"></path><path d="M1.25 19.7503V57.125C1.25 60.2188 3.78124 62.75 6.87498 62.75V25.3753C3.78124 25.3753 1.25 22.844 1.25 19.7503ZM1.25 19.7503C1.25 16.6565 3.78124 14.1253 6.87498 14.1253H25.5483M38.4829 14.1253H56.4999" stroke="#BBA98F" stroke-width="2.2" stroke-miterlimit="22.9256" stroke-linecap="round" stroke-linejoin="round"></path><path d="M23.7793 45.5362C20.8812 44.6736 19.1644 41.6275 19.9516 38.6894L26.1465 15.5698M30.9336 19.4377L23.0981 48.6798" stroke="#BBA98F" stroke-width="2.2" stroke-miterlimit="22.9256" stroke-linecap="round" stroke-linejoin="round"></path><path d="M34.1282 19.0033C37.3739 17.8283 39.0526 14.2446 37.8776 10.9989C36.7026 7.75318 33.1189 6.07453 29.8732 7.24951C26.6275 8.4245 24.9489 12.0082 26.1238 15.2539C27.2988 18.4996 30.8825 20.1782 34.1282 19.0033Z" stroke="#BBA98F" stroke-width="2.2" stroke-miterlimit="22.9256" stroke-linecap="round" stroke-linejoin="round"></path><path d="M40.2206 45.5362C43.1187 44.6736 44.8356 41.6275 44.0484 38.6894L37.8535 15.5698M33.0664 19.4377L40.9019 48.6798" stroke="#BBA98F" stroke-width="2.2" stroke-miterlimit="22.9256" stroke-linecap="round" stroke-linejoin="round"></path><path d="M29.1875 7.2615V1.25H34.8125V7.2615" stroke="#BBA98F" stroke-width="2.2" stroke-miterlimit="22.9256" stroke-linecap="round" stroke-linejoin="round"></path><path d="M32 13.1253H32.0009" stroke="#BBA98F" stroke-width="2.2" stroke-miterlimit="22.9256" stroke-linecap="round" stroke-linejoin="round"></path><path d="M17 35.5938H20.4688M26.839 35.5938H37.0986M43.5314 35.5938H47" stroke="#BBA98F" stroke-width="2.2" stroke-miterlimit="22.9256" stroke-linecap="round" stroke-linejoin="round"></path><path d="M32 33.7188V37.4688" stroke="#BBA98F" stroke-width="2.2" stroke-miterlimit="22.9256" stroke-linecap="round" stroke-linejoin="round"></path></g><defs><clipPath id="clip0_551_5766"><rect width="64" height="64" fill="white"></rect></clipPath></defs></svg>