<svg xmlns="http://www.w3.org/2000/svg" width="48" height="48" viewBox="0 0 48 48" fill="none"><path d="M38.209 32.6575C41.5353 33.8812 43.7794 37.0592 43.7794 40.6461V46.5945" stroke="#AFA280" stroke-width="2.5" stroke-miterlimit="10" stroke-linecap="round" stroke-linejoin="round"></path><path d="M28.9355 29.9534L32.6302 31.0216" stroke="#AFA280" stroke-width="2.5" stroke-miterlimit="10" stroke-linecap="round" stroke-linejoin="round"></path><path d="M15.3691 31.0095L19.125 29.929" stroke="#AFA280" stroke-width="2.5" stroke-miterlimit="10" stroke-linecap="round" stroke-linejoin="round"></path><path d="M4.2207 46.5934V40.6262C4.2207 37.0682 6.42862 33.9131 9.70989 32.668" stroke="#AFA280" stroke-width="2.5" stroke-miterlimit="10" stroke-linecap="round" stroke-linejoin="round"></path><path d="M28.942 27.179V29.9294L28.9137 29.9629C26.3505 32.9986 21.6673 32.9826 19.125 29.9294V27.179" stroke="#AFA280" stroke-width="2.5" stroke-miterlimit="10" stroke-linecap="round" stroke-linejoin="round"></path><path d="M38.2435 46.5941V31.7331C38.0432 31.6584 37.8394 31.59 37.6314 31.5298L32.6311 30.0842V41.6201H15.3704V30.0723L10.3804 31.5079C10.1688 31.5688 9.96151 31.6381 9.75781 31.7141V46.594" stroke="#AFA280" stroke-width="2.5" stroke-miterlimit="10" stroke-linecap="round" stroke-linejoin="round"></path><path d="M33.9563 16.052V20.2843C33.9563 24.0925 30.8691 27.1796 27.0609 27.1796H20.9393C17.1311 27.1796 14.0439 24.0925 14.0439 20.2843V16.052" stroke="#AFA280" stroke-width="2.5" stroke-miterlimit="10" stroke-linecap="round" stroke-linejoin="round"></path><path d="M26.7949 3.18652H27.0614C30.8696 3.18652 33.9568 6.27365 33.9568 10.0818V10.4638" stroke="#AFA280" stroke-width="2.5" stroke-miterlimit="10" stroke-linecap="round" stroke-linejoin="round"></path><path d="M14.0439 10.4638V10.0818C14.0439 6.27365 17.1311 3.18652 20.9393 3.18652H21.2059" stroke="#AFA280" stroke-width="2.5" stroke-miterlimit="10" stroke-linecap="round" stroke-linejoin="round"></path><path d="M21.2051 10.4629V1.40625H26.7936V10.4629" stroke="#AFA280" stroke-width="2.5" stroke-miterlimit="10" stroke-linecap="round" stroke-linejoin="round"></path><path d="M35.8522 10.4629H12.1504V16.0514H35.8522V10.4629Z" stroke="#AFA280" stroke-width="2.5" stroke-miterlimit="10" stroke-linecap="round" stroke-linejoin="round"></path></svg>