<svg xmlns="http://www.w3.org/2000/svg" width="64" height="64" viewBox="0 0 64 64" fill="none"><g clip-path="url(#clip0_551_5795)"><path d="M25.1294 5.9045C34.2991 6.28662 41.6414 13.8662 41.6414 23.1286V28.9393H41.6139C41.6139 32.0381 42.289 34.9823 43.5 37.6323" stroke="#BBA98F" stroke-width="2.2" stroke-miterlimit="10" stroke-linecap="round" stroke-linejoin="round"></path><path d="M11.3315 4.57962L5.30367 7.781C4.41542 8.25275 4.0778 9.35512 4.54955 10.2434C5.0213 11.1316 6.1238 11.4692 7.01205 10.9975L14.4398 7.05262" stroke="#BBA98F" stroke-width="2.2" stroke-miterlimit="10" stroke-linecap="round" stroke-linejoin="round"></path><path d="M6.07898 20.0588C5.33073 21.3363 4.4541 23.8734 4.4541 26.0639V56.343H34.37V26.0639C34.37 19.4916 29.0422 14.1637 22.4702 14.1637H16.3539C13.3495 14.1637 9.79375 15.9897 8.51123 17.1145" stroke="#BBA98F" stroke-width="2.2" stroke-miterlimit="10" stroke-linecap="round" stroke-linejoin="round"></path><path d="M36.1824 57.5148V61.7489C36.1824 62.4744 35.5942 63.0625 34.8687 63.0625H3.95523C3.22973 63.0625 2.6416 62.4744 2.6416 61.7489V57.5148C2.6416 56.8676 3.1661 56.3431 3.81323 56.3431H35.0107C35.6577 56.343 36.1824 56.8676 36.1824 57.5148Z" stroke="#BBA98F" stroke-width="2.2" stroke-miterlimit="10" stroke-linecap="round" stroke-linejoin="round"></path><path d="M4.4541 27.9416H16.4829C17.13 27.9416 17.6545 28.4663 17.6545 29.1133V48.8203C17.6545 49.4674 17.1299 49.9919 16.4829 49.9919H4.4541" stroke="#BBA98F" stroke-width="2.2" stroke-miterlimit="10" stroke-linecap="round" stroke-linejoin="round"></path><path d="M4.40913 0.9375H19.8339V0.95625C22.441 1.17088 24.4905 3.35337 24.4905 6.016C24.4905 8.82087 22.2168 11.0946 19.412 11.0946C16.6073 11.0946 14.3335 8.82087 14.3335 6.016C14.3335 5.51687 14.4068 5.03513 14.5409 4.5795H4.40913C3.40338 4.5795 2.58813 3.76425 2.58813 2.7585C2.58813 1.75275 3.40338 0.9375 4.40913 0.9375Z" stroke="#BBA98F" stroke-width="2.2" stroke-miterlimit="10" stroke-linecap="round" stroke-linejoin="round"></path><path d="M19.4121 7.88938C20.4466 7.88938 21.2853 7.05069 21.2853 6.01613C21.2853 4.98156 20.4466 4.14288 19.4121 4.14288C18.3775 4.14288 17.5388 4.98156 17.5388 6.01613C17.5388 7.05069 18.3775 7.88938 19.4121 7.88938Z" stroke="#BBA98F" stroke-width="2.2" stroke-miterlimit="10" stroke-linecap="round" stroke-linejoin="round"></path><path d="M44.1078 43.0591L47.816 41.2002C48.7341 40.74 49.1054 39.6225 48.6451 38.7044C48.1849 37.7861 47.0674 37.4149 46.1493 37.8753L42.441 39.7341C41.5229 40.1944 41.1516 41.3119 41.6119 42.23C42.0721 43.1481 43.1896 43.5194 44.1078 43.0591Z" stroke="#BBA98F" stroke-width="2.2" stroke-miterlimit="10" stroke-linecap="round" stroke-linejoin="round"></path><path d="M57.3218 49.7167L50.8893 40.8776C50.53 40.3837 49.866 40.2224 49.32 40.496L42.4521 43.9387C41.9063 44.2124 41.6383 44.8404 41.8185 45.4236L46.9757 62.1236C47.2035 62.861 48.0387 63.2174 48.7285 62.8715L60.7222 56.8592C61.4117 56.5136 61.6262 55.6316 61.1723 55.008L59.5053 52.7174" stroke="#BBA98F" stroke-width="2.2" stroke-miterlimit="10" stroke-linecap="round" stroke-linejoin="round"></path></g><defs><clipPath id="clip0_551_5795"><rect width="64" height="64" fill="white"></rect></clipPath></defs></svg>