<svg xmlns="http://www.w3.org/2000/svg" width="64" height="64" viewBox="0 0 64 64" fill="none"><g clip-path="url(#clip0_547_5605)"><path d="M23.1675 48H5.625C3.55387 48 1.875 46.3211 1.875 44.25V5.625C1.875 3.55387 3.55387 1.875 5.625 1.875H58.375C60.4461 1.875 62.125 3.55387 62.125 5.625V44.25C62.125 46.3211 60.4461 48 58.375 48H40.976" stroke="#BBA98F" stroke-width="2.2" stroke-miterlimit="10" stroke-linecap="round" stroke-linejoin="round"></path><path d="M15.7172 12.1562C15.7172 12.1562 14.2183 10.7737 11.9081 11.4697C9.78672 12.1087 9.25985 15.0114 10.7015 16.142C11.5292 16.7912 12.7747 17.325 14.4532 17.9184C18.2101 19.2464 16.8213 24.5445 12.9998 24.57C11.5085 24.5799 10.8113 24.4852 9.50122 23.6282" stroke="#BBA98F" stroke-width="2.2" stroke-miterlimit="10" stroke-linecap="round" stroke-linejoin="round"></path><path d="M13 26V24.5705" stroke="#BBA98F" stroke-width="2.2" stroke-miterlimit="10" stroke-linecap="round" stroke-linejoin="round"></path><path d="M13 11.2793V10" stroke="#BBA98F" stroke-width="2.2" stroke-miterlimit="10" stroke-linecap="round" stroke-linejoin="round"></path><path d="M39 50.4016V62.125L32 60L25 62.125V50.4016" stroke="#BBA98F" stroke-width="2.2" stroke-miterlimit="10" stroke-linecap="round" stroke-linejoin="round"></path><path d="M32 53C37.5228 53 42 48.5228 42 43C42 37.4772 37.5228 33 32 33C26.4772 33 22 37.4772 22 43C22 48.5228 26.4772 53 32 53Z" stroke="#BBA98F" stroke-width="2.2" stroke-miterlimit="10" stroke-linecap="round" stroke-linejoin="round"></path><path d="M32 42V44" stroke="#BBA98F" stroke-width="2.2" stroke-miterlimit="10" stroke-linecap="round" stroke-linejoin="round"></path><path d="M24 10H54" stroke="#BBA98F" stroke-width="2.2" stroke-miterlimit="10" stroke-linecap="round" stroke-linejoin="round"></path><path d="M24 18H54" stroke="#BBA98F" stroke-width="2.2" stroke-miterlimit="10" stroke-linecap="round" stroke-linejoin="round"></path><path d="M24 26H40" stroke="#BBA98F" stroke-width="2.2" stroke-miterlimit="10" stroke-linecap="round" stroke-linejoin="round"></path><path d="M10 40H14" stroke="#BBA98F" stroke-width="2.2" stroke-miterlimit="10" stroke-linecap="round" stroke-linejoin="round"></path><path d="M50 40H54" stroke="#BBA98F" stroke-width="2.2" stroke-miterlimit="10" stroke-linecap="round" stroke-linejoin="round"></path></g><defs><clipPath id="clip0_547_5605"><rect width="64" height="64" fill="white"></rect></clipPath></defs></svg>