<svg xmlns="http://www.w3.org/2000/svg" width="64" height="64" viewBox="0 0 64 64" fill="none"><g clip-path="url(#clip0_557_5947)"><path d="M23 29.9713C23 28.7215 23 16.8816 23 15H41V40" stroke="#BBA98F" stroke-width="2.2" stroke-miterlimit="10" stroke-linecap="round" stroke-linejoin="round"></path><path d="M21.8 29.6C22.5537 28.5975 23 27.3513 23 26C23 22.6862 20.3138 20 17 20C13.6862 20 11 22.6862 11 26C11 27.2615 11.389 28.4315 12.054 29.3971" stroke="#BBA98F" stroke-width="2.2" stroke-miterlimit="10" stroke-linecap="round" stroke-linejoin="round"></path><path d="M62.125 54H1.875V62.125H62.125V54Z" stroke="#BBA98F" stroke-width="2.2" stroke-miterlimit="10" stroke-linecap="round" stroke-linejoin="round"></path><path d="M25.7669 38.6236C27.1689 37.6183 28 36.362 28 35C28 31.6862 23.075 29 17 29C10.925 29 6 31.6862 6 35C6 36.5719 7.10738 38.0018 8.9215 39.0706" stroke="#BBA98F" stroke-width="2.2" stroke-miterlimit="10" stroke-linecap="round" stroke-linejoin="round"></path><path d="M18 54C9.16375 54 1.875 50.4187 1.875 46C1.875 41.5813 9.16375 38 18 38C22.0575 38 25.7625 38.755 28.5837 40" stroke="#BBA98F" stroke-width="2.2" stroke-miterlimit="10" stroke-linecap="round" stroke-linejoin="round"></path><path d="M27.75 54H55.125C58.991 54 62.125 50.866 62.125 47C62.125 43.1448 59.0016 40 55.125 40H27.75C25.6789 40 24 41.6789 24 43.75V50.25C24 52.3211 25.6789 54 27.75 54Z" stroke="#BBA98F" stroke-width="2.2" stroke-miterlimit="10" stroke-linecap="round" stroke-linejoin="round"></path><path d="M54 47H25" stroke="#BBA98F" stroke-width="2.2" stroke-miterlimit="10" stroke-linecap="round" stroke-linejoin="round"></path><path d="M37 10C37 7.23863 34.7614 1.875 32 1.875C29.2386 1.875 27 7.23863 27 10C27 12.7614 29.2386 15 32 15C34.7614 15 37 12.7614 37 10Z" stroke="#BBA98F" stroke-width="2.2" stroke-miterlimit="10" stroke-linecap="round" stroke-linejoin="round"></path></g><defs><clipPath id="clip0_557_5947"><rect width="64" height="64" fill="white"></rect></clipPath></defs></svg>