<svg xmlns="http://www.w3.org/2000/svg" width="48" height="48" viewBox="0 0 48 48" fill="none"><path fill-rule="evenodd" clip-rule="evenodd" d="M21 16C21.5523 16 22 16.4477 22 17V18H22.7322C22.744 17.9998 22.7558 17.9998 22.7676 18H25C25.5523 18 26 18.4477 26 19C26 19.5523 25.5523 20 25 20H23.578C23.2163 21.6875 22.6308 23.2915 21.8541 24.7796C22.1448 25.1338 22.4496 25.476 22.7677 25.8055C23.1512 26.2028 23.1401 26.8359 22.7427 27.2195C22.3454 27.603 21.7123 27.5919 21.3287 27.1945C21.1396 26.9986 20.9547 26.7987 20.774 26.5948C19.889 27.9101 18.8439 29.1084 17.6669 30.1618C17.2554 30.5301 16.6232 30.4951 16.2549 30.0836C15.8865 29.672 15.9216 29.0398 16.3331 28.6715C17.5462 27.5858 18.6021 26.3288 19.4631 24.9389C18.9066 24.1499 18.4087 23.3165 17.9756 22.445C17.7298 21.9505 17.9315 21.3503 18.4261 21.1045C18.9206 20.8587 19.5208 21.0604 19.7666 21.555C20.0002 22.025 20.255 22.4828 20.5296 22.927C20.947 21.9927 21.2825 21.014 21.527 20H17C16.4477 20 16 19.5523 16 19C16 18.4477 16.4477 18 17 18H20V17C20 16.4477 20.4477 16 21 16ZM27 22C27.3788 22 27.725 22.214 27.8944 22.5528L30.8854 28.5348C30.8919 28.5471 30.8982 28.5596 30.9041 28.5722L31.8944 30.5528C32.1414 31.0468 31.9412 31.6474 31.4472 31.8944C30.9532 32.1414 30.3526 31.9412 30.1056 31.4472L29.382 30H24.618L23.8944 31.4472C23.6474 31.9412 23.0468 32.1414 22.5528 31.8944C22.0588 31.6474 21.8586 31.0468 22.1056 30.5528L23.0959 28.5722C23.1019 28.5596 23.1081 28.5471 23.1146 28.5348L26.1056 22.5528C26.275 22.214 26.6212 22 27 22ZM25.618 28H28.382L27 25.2361L25.618 28Z" fill="white"></path><rect x="0.5" y="0.5" width="47.0002" height="47.0002" stroke="#AFA280"></rect></svg>