<svg xmlns="http://www.w3.org/2000/svg" width="64" height="64" viewBox="0 0 64 64" fill="none"><path d="M13.858 24.84V21.3748C13.858 10.6175 22.6097 1.86588 33.3669 1.86588C39.9872 1.86588 46.0973 5.17721 49.7116 10.7237C53.326 16.2703 53.8876 23.1973 51.2139 29.2536L40.3377 53.8903C38.1269 58.8983 33.1611 62.1341 27.6867 62.1341C20.0615 62.1341 13.8579 55.9305 13.8579 48.3053V39.3799" stroke="#BBA98F" stroke-width="2.2" stroke-miterlimit="10"></path><path d="M21.3215 24.84V21.3748C21.3215 14.7223 26.7144 9.32955 33.3668 9.32955C42.0706 9.32955 47.9012 18.2771 44.3861 26.2396L33.51 50.876C32.4917 53.1825 30.2081 54.6706 27.6869 54.6706C24.1715 54.6706 21.3217 51.8207 21.3217 48.3053V39.3799" stroke="#BBA98F" stroke-width="2.2" stroke-miterlimit="10"></path><path d="M24.0856 24.84H11.1157V39.38H24.0856V24.84Z" stroke="#BBA98F" stroke-width="2.2" stroke-miterlimit="10"></path><path d="M11.1157 32.0259H24.0855" stroke="#BBA98F" stroke-width="2.2" stroke-miterlimit="10"></path><path d="M13.8796 46.7886H21.3217" stroke="#BBA98F" stroke-width="2.2" stroke-miterlimit="10"></path></svg>