<svg xmlns="http://www.w3.org/2000/svg" width="64" height="64" viewBox="0 0 64 64" fill="none"><g clip-path="url(#clip0_547_5621)"><path d="M45.6536 53.0286V50.9395M45.6536 35.1895V33.0286" stroke="#BBA98F" stroke-width="2.2" stroke-miterlimit="22.9256" stroke-linecap="round" stroke-linejoin="round"></path><path d="M52.7246 50.0996L51.2398 48.6148M40.1033 37.4783L38.5825 35.9575" stroke="#BBA98F" stroke-width="2.2" stroke-miterlimit="22.9256" stroke-linecap="round" stroke-linejoin="round"></path><path d="M55.6536 43.0286H53.5281M37.7791 43.0286H35.6536" stroke="#BBA98F" stroke-width="2.2" stroke-miterlimit="22.9256" stroke-linecap="round" stroke-linejoin="round"></path><path d="M52.7246 35.9575L51.2039 37.4783M40.0674 48.6148L38.5825 50.0996" stroke="#BBA98F" stroke-width="2.2" stroke-miterlimit="22.9256" stroke-linecap="round" stroke-linejoin="round"></path><path d="M58.4664 16.4811C61.8399 15.2599 63.5847 11.5351 62.3634 8.16156C61.1422 4.78804 57.4174 3.04328 54.0439 4.26453C50.6703 5.48579 48.9256 9.2106 50.1468 12.5841C51.3681 15.9576 55.0929 17.7024 58.4664 16.4811Z" stroke="#BBA98F" stroke-width="2.2" stroke-miterlimit="22.9256" stroke-linecap="round" stroke-linejoin="round"></path><path fill-rule="evenodd" clip-rule="evenodd" d="M56.2534 10.3711H56.2544H56.2534Z" stroke="#BBA98F" stroke-width="2.2" stroke-miterlimit="22.9256" stroke-linecap="round" stroke-linejoin="round"></path><path d="M62.7498 10.631V43.0286" stroke="#BBA98F" stroke-width="2.2" stroke-miterlimit="22.9256" stroke-linecap="round" stroke-linejoin="round"></path><path d="M14.2422 3.87512L56.2538 3.875" stroke="#BBA98F" stroke-width="2.2" stroke-miterlimit="22.9256" stroke-linecap="round" stroke-linejoin="round"></path><path d="M5.05542 26.0541L33.5647 55.1175" stroke="#BBA98F" stroke-width="2.2" stroke-miterlimit="22.9256" stroke-linecap="round" stroke-linejoin="round"></path><path d="M14.2423 29.8595C21.4177 29.8595 27.2345 24.0427 27.2345 16.8673C27.2345 9.69183 21.4177 3.875 14.2423 3.875C7.06683 3.875 1.25 9.69183 1.25 16.8673C1.25 24.0427 7.06683 29.8595 14.2423 29.8595Z" stroke="#BBA98F" stroke-width="2.2" stroke-miterlimit="22.9256" stroke-linecap="round" stroke-linejoin="round"></path><path fill-rule="evenodd" clip-rule="evenodd" d="M10.8005 20.3089C12.7031 22.2115 15.7811 22.2115 17.6838 20.3089C19.5864 18.4063 19.5864 15.3281 17.6838 13.4255C15.7811 11.5229 12.703 11.5229 10.8005 13.4255C8.89788 15.3283 8.89788 18.4063 10.8005 20.3089Z" stroke="#BBA98F" stroke-width="2.2" stroke-miterlimit="22.9256" stroke-linecap="round" stroke-linejoin="round"></path><path d="M45.6535 60.125C55.0956 60.125 62.7499 52.4707 62.7499 43.0286C62.7499 33.5866 55.0956 25.9323 45.6535 25.9323C36.2114 25.9323 28.5571 33.5866 28.5571 43.0286C28.5571 52.4707 36.2114 60.125 45.6535 60.125Z" stroke="#BBA98F" stroke-width="2.2" stroke-miterlimit="22.9256" stroke-linecap="round" stroke-linejoin="round"></path><path d="M51.1771 48.5887C54.2281 45.5378 54.2281 40.5912 51.1771 37.5403C48.1262 34.4894 43.1797 34.4894 40.1287 37.5403C37.0778 40.5912 37.0778 45.5378 40.1287 48.5887C43.1797 51.6397 48.1262 51.6397 51.1771 48.5887Z" stroke="#BBA98F" stroke-width="2.2" stroke-miterlimit="22.9256" stroke-linecap="round" stroke-linejoin="round"></path><path d="M47.4207 44.8323C48.397 43.856 48.397 42.2731 47.4207 41.2968C46.4444 40.3205 44.8615 40.3205 43.8852 41.2968C42.9089 42.2731 42.9089 43.856 43.8852 44.8323C44.8615 45.8086 46.4444 45.8086 47.4207 44.8323Z" stroke="#BBA98F" stroke-width="2.2" stroke-miterlimit="22.9256" stroke-linecap="round" stroke-linejoin="round"></path></g><defs><clipPath id="clip0_547_5621"><rect width="64" height="64" fill="white"></rect></clipPath></defs></svg>