<svg xmlns="http://www.w3.org/2000/svg" width="64" height="64" viewBox="0 0 64 64" fill="none"><g clip-path="url(#clip0_547_5593)"><path d="M28.4539 8.91443L31.4997 16.8681" stroke="#BBA98F" stroke-width="2.2" stroke-miterlimit="10" stroke-linecap="round" stroke-linejoin="round"></path><path d="M20.9856 11.7334L36.0327 6.05365L41.8392 21.2158" stroke="#BBA98F" stroke-width="2.2" stroke-miterlimit="10" stroke-linecap="round" stroke-linejoin="round"></path><path d="M37.6738 22.788L40.9441 31.3277" stroke="#BBA98F" stroke-width="2.2" stroke-miterlimit="10" stroke-linecap="round" stroke-linejoin="round"></path><path d="M26.792 26.8955L47.5031 19.0779L55.4951 39.9471" stroke="#BBA98F" stroke-width="2.2" stroke-miterlimit="10" stroke-linecap="round" stroke-linejoin="round"></path><path d="M33.4876 56.3295L59.6962 46.4368C61.6406 45.7029 62.6175 43.543 61.8782 41.6127C61.139 39.6823 58.9635 38.7124 56.9943 39.3812L34.7841 47.7648L18.1693 4.37977C17.4067 2.38852 15.1776 1.38865 13.1833 2.14353L4.28621 5.5114C2.35609 6.2399 1.38621 8.38402 2.12009 10.3003C2.85396 12.2165 5.01346 13.1794 6.94371 12.4508L12.3397 10.414L29.3272 54.8072" stroke="#BBA98F" stroke-width="2.2" stroke-miterlimit="10" stroke-linecap="round" stroke-linejoin="round"></path><path d="M30.3614 62.1072C32.4323 62.1072 34.1111 60.4405 34.1111 58.3845C34.1111 56.3286 32.4323 54.6619 30.3614 54.6619C28.2906 54.6619 26.6118 56.3286 26.6118 58.3845C26.6118 60.4405 28.2906 62.1072 30.3614 62.1072Z" stroke="#BBA98F" stroke-width="2.2" stroke-miterlimit="10" stroke-linecap="round" stroke-linejoin="round"></path></g><defs><clipPath id="clip0_547_5593"><rect width="64" height="64" fill="white"></rect></clipPath></defs></svg>