<svg xmlns="http://www.w3.org/2000/svg" width="48" height="48" viewBox="0 0 48 48" fill="none"><g clip-path="url(#clip0_1103_1767)"><path d="M21.1875 18.375V38.1562C14.9743 38.1562 9.84375 33.1194 9.84375 26.9062V18.4688C5.18381 18.4688 1.40625 22.2463 1.40625 26.9062H4.21875C4.21875 36.226 11.8677 43.7812 21.1875 43.7812L24 46.5938L26.8125 43.7812C36.1323 43.7812 43.7812 36.226 43.7812 26.9062H46.5938C46.5938 22.2463 42.8162 18.4688 38.1562 18.4688V26.9062C38.1562 33.1194 33.0257 38.1562 26.8125 38.1562V18.375" stroke="#AFA280" stroke-width="2.5" stroke-miterlimit="10" stroke-linecap="round" stroke-linejoin="round"></path><path d="M26.8125 18.3749V11.876C28.8563 10.6865 30.1014 8.27611 29.452 5.62017C28.9572 3.59639 27.2562 1.96139 25.2171 1.53398C21.579 0.771418 18.375 3.5272 18.375 7.0312C18.375 9.10795 19.5133 10.9017 21.1875 11.876V18.3749" stroke="#AFA280" stroke-width="2.5" stroke-miterlimit="10" stroke-linecap="round" stroke-linejoin="round"></path><path d="M15.5625 18.375H32.4375" stroke="#AFA280" stroke-width="2.5" stroke-miterlimit="10" stroke-linecap="round" stroke-linejoin="round"></path><path d="M15.5625 15.5625V21.1875" stroke="#AFA280" stroke-width="2.5" stroke-miterlimit="10" stroke-linecap="round" stroke-linejoin="round"></path><path d="M32.4375 15.5625V21.1875" stroke="#AFA280" stroke-width="2.5" stroke-miterlimit="10" stroke-linecap="round" stroke-linejoin="round"></path></g><defs><clipPath id="clip0_1103_1767"><rect width="48" height="48" fill="white"></rect></clipPath></defs></svg>