<svg width="100" height="100" viewBox="0 0 100 100" fill="none" xmlns="http://www.w3.org/2000/svg">
<rect width="100" height="100" fill="#111521"/>
<rect width="54" height="53" transform="translate(23 23)" fill="#111521"/>
<path fill-rule="evenodd" clip-rule="evenodd" d="M66.9319 32.6003C71.3954 37.0568 73.9029 43.1011 73.9029 49.4035H60.6803C60.6803 46.487 59.4963 43.8467 57.582 41.9354L66.9319 32.6003Z" fill="white" stroke="#111521"/>
<path fill-rule="evenodd" clip-rule="evenodd" d="M50.1023 28.2808C44.4913 28.2808 39.1101 30.5062 35.1426 34.4675L42.6224 41.9356C44.5367 40.0243 47.1812 38.8422 50.1023 38.8422L50.1023 28.2808Z" fill="white" stroke="#111521"/>
<path fill-rule="evenodd" clip-rule="evenodd" d="M31.5898 49.4036C31.5898 44.5017 33.5402 39.8006 37.0118 36.3345L42.6217 41.9355C40.7074 43.8468 39.5234 46.4871 39.5234 49.4036L31.5898 49.4036Z" fill="white" stroke="#111521"/>
<path fill-rule="evenodd" clip-rule="evenodd" d="M39.5234 49.4036L26.3008 49.4036C26.3008 55.706 28.8084 61.7503 33.2719 66.2067L42.6217 56.8716C40.7074 54.9604 39.5234 52.32 39.5234 49.4036Z" fill="white" stroke="#111521"/>
<path fill-rule="evenodd" clip-rule="evenodd" d="M57.5814 56.8716C55.6671 58.7828 53.0226 59.965 50.1016 59.965L50.1016 70.5264C55.7125 70.5264 61.0937 68.301 65.0613 64.3397L57.5814 56.8716Z" fill="white" stroke="#111521"/>
<path fill-rule="evenodd" clip-rule="evenodd" d="M57.582 56.8716C59.4963 54.9604 60.6803 52.32 60.6803 49.4036L68.6139 49.4036C68.6139 54.3054 66.6635 59.0065 63.1919 62.4727L57.582 56.8716Z" fill="white" stroke="#111521"/>
<path fill-rule="evenodd" clip-rule="evenodd" d="M50.1016 23C57.1153 23 63.8417 25.7818 68.8012 30.7334L57.5814 41.9356C55.6672 40.0243 53.0226 38.8422 50.1016 38.8422V23Z" fill="white" stroke="#111521"/>
<path fill-rule="evenodd" clip-rule="evenodd" d="M42.6221 56.8716C44.5364 58.7828 47.1809 59.965 50.102 59.965V75.8071C43.0883 75.8071 36.3618 73.0253 31.4023 68.0737L42.6221 56.8716Z" fill="white" stroke="#111521"/>
</svg>
